<?xml version="1.0" encoding="utf-8"?>
<!-- Generator: Adobe Illustrator 27.5.0, SVG Export Plug-In . SVG Version: 6.00 Build 0)  -->
<svg version="1.1" id="Capa_1" xmlns="http://www.w3.org/2000/svg" xmlns:xlink="http://www.w3.org/1999/xlink" x="0px" y="0px"
	 viewBox="0 0 2546 1768" style="enable-background:new 0 0 2546 1768;" xml:space="preserve">
<rect x="0" style="fill:#FFFFFF;" width="2545.415" height="1767.885"/>
<g>
	<g>
		<polygon style="fill:#6EC8C1;" points="166.498,1363 807.144,1363 782.843,1499.909 190.772,1499.909 		"/>
		<g>
			<polygon style="fill:#52ADA0;" points="190.772,1499.909 304.186,1533.402 304.186,1499.909 			"/>
			<polygon style="fill:#52ADA0;" points="782.843,1499.909 669.454,1533.402 669.454,1499.909 			"/>
		</g>
		<g>
			<polygon style="fill:#6EC8C1;" points="304.186,1533.402 217.076,1564.195 217.076,1507.697 			"/>
			<polygon style="fill:#6EC8C1;" points="669.454,1533.402 756.54,1564.195 756.54,1507.697 			"/>
		</g>
		<g>
			<polygon style="fill:#52ADA0;" points="260.629,1548.79 260.629,1583.792 217.076,1564.195 			"/>
			<polygon style="fill:#52ADA0;" points="713.008,1548.79 713.008,1583.792 756.54,1564.195 			"/>
		</g>
	</g>
	<g>
		<g>
			<rect x="1735.023" y="187.685" style="fill:#6EC8C1;" width="646.77" height="106.284"/>
			<polygon style="fill:#52ADA0;" points="1735.023,293.969 1823.051,319.95 1823.051,293.969 			"/>
			<polygon style="fill:#6EC8C1;" points="1823.051,319.95 1755.458,343.852 1755.458,300.014 			"/>
			<polygon style="fill:#52ADA0;" points="1789.252,331.888 1789.252,359.064 1755.458,343.852 			"/>
			<polygon style="fill:#52ADA0;" points="2381.793,293.969 2293.764,319.95 2293.764,293.969 			"/>
			<polygon style="fill:#6EC8C1;" points="2293.764,319.95 2361.387,343.852 2361.387,300.014 			"/>
			<polygon style="fill:#52ADA0;" points="2327.584,331.888 2327.584,359.064 2361.387,343.852 			"/>
		</g>
	</g>
	<g>
		<g>
			<path style="fill:#52ADA0;" d="M1449.06,1426.422c58.216,13.41,91.683,24.242,143.956,54.469l-50.294,14.198l13.456,49.577
				c-45.909-26.513-72.494-34.658-123.592-46.454L1449.06,1426.422z"/>
			<path style="fill:#52ADA0;" d="M1090.256,1426.422c-58.216,13.41-91.709,24.242-143.981,54.469l50.294,14.198l-13.456,49.577
				c45.888-26.513,72.519-34.658,123.592-46.454L1090.256,1426.422z"/>
		</g>
		<path style="fill:#6EC8C1;" d="M1026.88,1434.86c8.765,28.496,17.534,57.013,26.279,85.496
			c28.94-8.899,61.817-15.686,96.676-20.41c96.701-20.423,248.437,0.058,248.437,0.058c34.738,4.724,67.43,11.498,96.278,20.351
			c8.765-28.483,17.53-57,26.274-85.496c-27.196-8.367-57.105-15.108-88.665-20.222v-0.012
			c-153.878-25.465-288.26-4.112-288.26-4.112v0.021C1101.871,1415.934,1062.112,1424.028,1026.88,1434.86z"/>
	</g>
	<g>
		<g>
			<g>
				<path style="fill:#52ADA0;" d="M1399.898,1018.498c77.775,13.15,122.72,24.841,193.99,60.593l-65.191,22.627l21.567,64.32
					c-62.55-31.384-98.256-40.07-166.487-51.627L1399.898,1018.498z"/>
				<path style="fill:#52ADA0;" d="M1139.397,1018.498c-77.755,13.15-122.724,24.828-193.998,60.593l65.216,22.627l-21.588,64.32
					c62.576-31.384,98.256-40.07,166.512-51.627L1139.397,1018.498z"/>
			</g>
			<g>
				<path style="fill:#316F6D;" d="M1387.264,1093.683l-3.488,20.729l91.939,0.293c1.229-10.077-27.125-8.367-46.005-12.433
					C1418.61,1099.903,1387.264,1093.683,1387.264,1093.683z"/>
				<path style="fill:#316F6D;" d="M1152.047,1093.683l3.492,20.729c0,0-92.25,2.343-92.128,0.293
					c0.541-11.15,27.314-8.367,46.19-12.433C1120.68,1099.903,1152.047,1093.683,1152.047,1093.683z"/>
			</g>
			<path style="fill:#6EC8C1;" d="M1034.798,1021.738c152.96-47.066,316.546-47.066,469.531,0
				c-9.545,30.991-19.094,61.997-28.613,92.966c-134.344-41.315-277.99-41.315-412.304,0
				C1053.862,1083.735,1044.343,1052.729,1034.798,1021.738z"/>
		</g>
	</g>
	<g>
		<g>
			<path style="fill:#52ADA0;" d="M356.907,1133.84c-77.566-13.125-122.393-24.782-193.474-60.442l65.024-22.577l-21.517-64.143
				c62.387,31.313,97.997,39.96,166.064,51.496L356.907,1133.84z"/>
			<path style="fill:#52ADA0;" d="M616.705,1133.84c77.566-13.125,122.418-24.782,193.503-60.442l-65.028-22.577l21.517-64.143
				c-62.408,31.313-97.997,39.96-166.089,51.496L616.705,1133.84z"/>
		</g>
		<g>
			<path style="fill:#316F6D;" d="M369.516,1058.836l3.488-20.662l-91.73-0.306c-1.199,10.052,27.058,8.367,45.913,12.4
				C338.241,1052.649,369.516,1058.836,369.516,1058.836z"/>
			<path style="fill:#316F6D;" d="M604.096,1058.836l-3.488-20.662c0,0,92.015-2.343,91.897-0.306
				c-0.545,11.138-27.247,8.367-46.055,12.4C635.375,1052.649,604.096,1058.836,604.096,1058.836z"/>
		</g>
		<path style="fill:#6EC8C1;" d="M721.043,1130.588c-152.583,46.953-315.7,46.953-468.261,0
			c9.499-30.898,18.997-61.817,28.492-92.719c133.992,41.223,277.265,41.223,411.231,0
			C702.025,1068.771,711.549,1099.69,721.043,1130.588z"/>
	</g>
	<g>
		<g>
			<g>
				<path style="fill:#52ADA0;" d="M1458.391,752.489c0,0,41.34,21.957,133.426,18.125c0,0-45.041-36.8-56.707-63.012
					c0,0,25.83-6.774,56.707-37.789c0,0-85.698-13.799-133.426-39.231V752.489z"/>
				<path style="fill:#52ADA0;" d="M1080.896,605.292c0,0-41.336-21.957-133.422-18.113c0,0,45.066,36.805,56.707,62.999
					c0,0-25.83,6.787-56.707,37.794c0,0,85.698,13.787,133.422,39.24V605.292z"/>
			</g>
			<g>
				<path style="fill:#316F6D;" d="M1458.391,711.212v41.277c0,0,36.042,13.2,40.895-8.895
					C1504.87,718.208,1458.391,711.212,1458.391,711.212z"/>
				<path style="fill:#316F6D;" d="M1080.896,646.574v-41.281c0,0-36.012-13.2-40.891,8.908
					C1034.421,639.561,1080.896,646.574,1080.896,646.574z"/>
			</g>
			<path style="fill:#6EC8C1;" d="M1498.557,733.445c-152.75-112.387-305.521,112.367-458.314,0c0-37.462,0-74.912,0-112.387
				c152.792,112.387,305.564-112.387,458.314,0C1498.557,658.533,1498.557,695.983,1498.557,733.445z"/>
		</g>
	</g>
	<g>
		<g>
			<path style="fill:#52ADA0;" d="M616.801,621.271c77.566,13.129,122.439,24.795,193.545,60.476l-65.074,22.581l21.542,64.152
				c-62.408-31.309-98.043-39.948-166.135-51.497L616.801,621.271z"/>
			<path style="fill:#52ADA0;" d="M356.861,621.271c-77.587,13.129-122.465,24.795-193.571,60.476l65.049,22.581l-21.517,64.152
				c62.408-31.309,98.022-39.948,166.135-51.497L356.861,621.271z"/>
		</g>
		<g>
			<g>
				<path style="fill:#A7A9AC;" d="M600.679,716.984c68.092,11.548,103.727,20.188,166.135,51.497l-5.206-15.543
					c-55.341-25.747-96.823-36.612-158.971-47.548L600.679,716.984z"/>
				<path style="fill:#A7A9AC;" d="M810.346,681.747c-68.939-34.209-117.371-47.585-193.545-60.476l-1.886,11.067
					c72.405,12.479,117.493,23.696,181.645,54.196L810.346,681.747z"/>
			</g>
			<g>
				<path style="fill:#A7A9AC;" d="M372.958,716.984c-68.113,11.548-103.727,20.188-166.135,51.497l5.206-15.543
					c55.341-25.747,96.823-36.612,158.971-47.548L372.958,716.984z"/>
				<path style="fill:#A7A9AC;" d="M163.291,681.747c68.939-34.209,117.372-47.585,193.571-60.476l1.861,11.067
					c-72.401,12.479-117.489,23.696-181.598,54.196L163.291,681.747z"/>
			</g>
		</g>
		<g>
			<path style="fill:#316F6D;" d="M604.167,696.289l-3.488,20.695l91.683,0.306c0,0-27.012-8.38-45.841-12.421
				C635.442,702.488,604.167,696.289,604.167,696.289z"/>
			<path style="fill:#316F6D;" d="M369.47,696.289l3.488,20.695l-91.705,0.306c0,0,27.033-8.38,45.863-12.421
				C338.195,702.488,369.47,696.289,369.47,696.289z"/>
		</g>
		<path style="fill:#6EC8C1;" d="M252.497,624.524c152.633-46.973,315.846-46.973,468.479,0
			c-9.524,30.923-19.044,61.842-28.542,92.766c-134.038-41.243-277.382-41.243-411.395,0
			C271.52,686.367,262.021,655.447,252.497,624.524z"/>
		<g>
			<path style="fill:#A7A9AC;" d="M717.698,635.13c1.086-3.534,2.192-7.071,3.278-10.605c-152.633-46.973-315.846-46.973-468.479,0
				c1.086,3.534,2.171,7.072,3.253,10.605C406.308,589.137,567.165,589.137,717.698,635.13z"/>
			<path style="fill:#A7A9AC;" d="M276.822,703.666c1.27,4.079,2.947,9.545,4.217,13.624c134.013-41.243,277.357-41.243,411.395,0
				c1.249-4.079,2.943-9.805,4.192-13.892C559.507,666.007,413.966,666.287,276.822,703.666z"/>
		</g>
	</g>
	<g>
		<g>
			<g>
				<path style="fill:#316F6D;" d="M1071.376,240.997c-51.426,19.681-80.605,33.857-124.489,68.139l47.749,6.527l-5.94,46.999
					c38.51-30.077,61.775-40.916,106.908-58.216L1071.376,240.997z"/>
				<path style="fill:#316F6D;" d="M1467.915,240.997c51.425,19.681,80.605,33.857,124.489,68.139l-47.749,6.527l5.965,46.999
					c-38.54-30.077-61.775-40.916-106.934-58.216L1467.915,240.997z"/>
			</g>
			<g>
				<path style="fill:#52ADA0;" d="M1154.831,206.682c-54.301,9.18-85.694,17.346-135.472,42.304l30.474,60.714
					c43.675-21.919,68.608-27.964,116.265-36.037L1154.831,206.682z"/>
				<path style="fill:#52ADA0;" d="M1384.481,206.682c54.28,9.18,85.698,17.346,135.45,42.304l-30.475,60.714
					c-43.649-21.919-68.608-27.964-116.264-36.037L1384.481,206.682z"/>
			</g>
			<g>
				<path style="fill:#4F938F;" d="M1163.667,259.181l2.431,14.483l-64.156,0.201c0,0,18.88-5.861,32.08-8.686
					C1141.778,263.528,1163.667,259.181,1163.667,259.181z"/>
				<path style="fill:#4F938F;" d="M1375.644,259.181l-2.452,14.483l64.177,0.201c0,0-18.901-5.861-32.076-8.686
					C1397.538,263.528,1375.644,259.181,1375.644,259.181z"/>
			</g>
			<g>
				<path style="fill:#417E7B;" d="M1095.604,304.444l-4.879-12.751c0,0-26.136,9.805-40.892,18.008L1095.604,304.444z"/>
				<path style="fill:#417E7B;" d="M1443.686,304.444l4.879-12.751c0,0,26.141,9.805,40.891,18.008L1443.686,304.444z"/>
			</g>
			<path style="fill:#6EC8C1;" d="M1081.956,208.942c6.673,21.638,13.318,43.272,19.987,64.923
				c21.969-6.753,46.902-11.918,73.395-15.497c73.412-15.51,188.662,0.034,188.662,0.034c26.35,3.597,51.19,8.732,73.089,15.464
				c6.644-21.651,13.292-43.285,19.962-64.923c-20.67-6.351-43.39-11.465-67.338-15.367l0,0
				c-116.852-19.337-218.877-3.11-218.877-3.11l0,0C1138.923,194.568,1108.708,200.717,1081.956,208.942z"/>
		</g>
	</g>
	<g>
		<g>
			<path style="fill:#52ADA0;" d="M2288.982,706.047c-141.789-100.382-235.334,286.441-460.439,178.086c0-37.643,0-75.281,0-112.919
				c153.459,112.919,306.959-290.993,460.439-178.086C2288.982,630.766,2288.982,668.404,2288.982,706.047z"/>
			<g>
				<g>
					<path style="fill:#52ADA0;" d="M2247.478,898.368c0,0,41.504,22.045,134.013,18.193c0,0-45.255-36.968-56.967-63.292
						c0,0,25.972-6.825,56.967-37.982c0,0-86.075-13.858-134.013-39.407V898.368z"/>
					<path style="fill:#52ADA0;" d="M1869.363,577.291c0,0-41.554-22.061-134.034-18.197c0,0,45.251,36.955,56.967,63.284
						c0,0-25.973,6.82-56.967,37.978c0,0,86.075,13.85,134.034,39.42V577.291z"/>
				</g>
				<g>
					<path style="fill:#316F6D;" d="M2247.478,857.029v41.478c0,0,36.151,13.246,41.03-8.941
						C2294.142,864.062,2247.478,857.029,2247.478,857.029z"/>
					<path style="fill:#316F6D;" d="M1869.363,618.748v-41.457c0,0-36.18-13.271-41.08,8.933
						C1822.674,611.722,1869.363,618.748,1869.363,618.748z"/>
				</g>
			</g>
		</g>
		<g>
			<g>
				<path style="fill:#6EC8C1;" d="M2289.003,706.093c-153.501-112.92-307.001,112.895-460.46,0c0-37.639,0-75.269,0-112.92
					c153.459,112.92,306.959-112.903,460.46,0C2289.003,630.825,2289.003,668.455,2289.003,706.093z"/>
				<path style="fill:#6EC8C1;" d="M2289.003,884.179c-153.501-112.92-307.001,112.907-460.46,0c0-37.639,0-75.281,0-112.92
					c153.459,112.92,306.959-112.894,460.46,0C2289.003,808.898,2289.003,846.541,2289.003,884.179z"/>
			</g>
		</g>
	</g>
	<g>
		<polygon style="fill:#52ADA0;" points="1820.41,1203.626 1734.691,1203.626 1765.87,1159.469 1734.691,1117.907 1820.41,1117.907 
					"/>
		<polygon style="fill:#52ADA0;" points="2296.406,1444.652 2382.124,1444.652 2350.966,1488.809 2382.124,1530.371 
			2296.406,1530.371 		"/>
		<polygon style="fill:#52ADA0;" points="2307.883,1210.555 1814.73,1373.559 1814.73,1272.2 2307.883,1109.209 		"/>
		<polygon style="fill:#52ADA0;" points="2307.883,1374.691 1814.73,1537.69 1814.73,1436.344 2307.883,1273.344 		"/>
		<rect x="1814.73" y="1109.339" style="fill:#6EC8C1;" width="493.152" height="101.346"/>
		<rect x="1814.73" y="1272.72" style="fill:#6EC8C1;" width="493.152" height="101.334"/>
		<rect x="1814.73" y="1436.072" style="fill:#6EC8C1;" width="493.152" height="101.359"/>
	</g>
	<g>
		<g>
			<polygon style="fill:#52ADA0;" points="810.208,335.661 697.594,335.661 697.594,230.932 810.208,230.932 774.171,284.977 			"/>
			<polygon style="fill:#316F6D;" points="697.666,315.804 697.666,335.59 734.361,315.804 			"/>
		</g>
		<g>
			<polygon style="fill:#52ADA0;" points="163.433,335.661 276.043,335.661 276.043,230.932 163.433,230.932 199.47,284.977 			"/>
			<polygon style="fill:#316F6D;" points="275.971,315.804 275.971,335.59 239.251,315.804 			"/>
		</g>
		<rect x="239.938" y="211.088" style="fill:#6EC8C1;" width="494.305" height="104.716"/>
	</g>
</g>
</svg>
