<?xml version="1.0" encoding="utf-8"?>
<!-- Generator: Adobe Illustrator 27.9.0, SVG Export Plug-In . SVG Version: 6.00 Build 0)  -->
<svg version="1.1" id="Layer_1" xmlns="http://www.w3.org/2000/svg" xmlns:xlink="http://www.w3.org/1999/xlink" x="0px" y="0px"
	 viewBox="0 0 511.7 512" style="enable-background:new 0 0 511.7 512;" xml:space="preserve">
<style type="text/css">
	.st0{fill:#FFFFFF;}
</style>
<path class="st0" d="M76.6,31.1v415.3c0,13.7,11.1,24.6,24.6,24.6c7.1,0,13.9-3,18.6-8.4l92.5-105.8l65.1,130.3
	c8.8,17.7,30.4,24.9,48.1,16c17.7-8.8,24.9-30.4,16-48.1L278,327.7h132.3c13.7,0,24.8-11.1,24.8-24.8c0-7.1-3-13.8-8.3-18.5
	L119.9,11.7C115,7.5,109,5.1,102.6,5.1C88.3,5.1,76.6,16.8,76.6,31.1z"/>
</svg>
