<?xml version="1.0" encoding="utf-8"?>
<!-- Generator: Adobe Illustrator 27.9.0, SVG Export Plug-In . SVG Version: 6.00 Build 0)  -->
<svg version="1.1" id="Layer_1" xmlns="http://www.w3.org/2000/svg" xmlns:xlink="http://www.w3.org/1999/xlink" x="0px" y="0px"
	 viewBox="0 0 640 640" style="enable-background:new 0 0 640 640;" xml:space="preserve">
<style type="text/css">
	.st0{fill:#FFFFFF;}
</style>
<path class="st0" d="M160,128c0-35.3,28.7-64,64-64h352c35.3,0,64,28.7,64,64v288c0,35.3-28.7,64-64,64H336.8
	c-11.8-25.5-29.9-47.5-52.4-64H384v-32c0-17.7,14.3-32,32-32h64c17.7,0,32,14.3,32,32v32h64V128H224v49.1
	c-18.8-10.9-40.7-17.1-64-17.1V128z M160,192c53,0,96,43,96,96s-43,96-96,96s-96-43-96-96S107,192,160,192z M133.3,416h53.3
	c73.7,0,133.4,59.7,133.4,133.3c0,14.7-11.9,26.7-26.7,26.7H26.7C11.9,576,0,564.1,0,549.3C0,475.7,59.7,416,133.3,416z"/>
</svg>
