<?xml version="1.0" encoding="utf-8"?>
<!-- Generator: Adobe Illustrator 26.5.0, SVG Export Plug-In . SVG Version: 6.00 Build 0)  -->
<svg version="1.1" id="Layer_1" xmlns="http://www.w3.org/2000/svg" xmlns:xlink="http://www.w3.org/1999/xlink" x="0px" y="0px"
	 viewBox="0 0 512 512" style="enable-background:new 0 0 512 512;" xml:space="preserve">
<style type="text/css">
	.st0{fill:#FFFFFF;}
</style>
<path class="st0" d="M256,512c141.4,0,256-114.6,256-256S397.4,0,256,0S0,114.6,0,256S114.6,512,256,512z M169.8,165.3
	c7.9-22.3,29.1-37.3,52.8-37.3h58.3c34.9,0,63.1,28.3,63.1,63.1c0,22.6-12.1,43.5-31.7,54.8L280,264.4c-0.2,13-10.9,23.6-24,23.6
	c-13.3,0-24-10.7-24-24v-13.5c0-8.6,4.6-16.5,12.1-20.8l44.3-25.4c4.7-2.7,7.6-7.7,7.6-13.1c0-8.4-6.8-15.1-15.1-15.1h-58.3
	c-3.4,0-6.4,2.1-7.5,5.3l-0.4,1.2c-4.4,12.5-18.2,19-30.6,14.6s-19-18.2-14.6-30.6L169.8,165.3L169.8,165.3z M224,352
	c0-17.7,14.3-32,32-32s32,14.3,32,32s-14.3,32-32,32S224,369.7,224,352z"/>
</svg>
