<?xml version="1.0" encoding="utf-8"?>
<!-- Generator: Adobe Illustrator 26.5.0, SVG Export Plug-In . SVG Version: 6.00 Build 0)  -->
<svg version="1.1" id="Layer_1" xmlns="http://www.w3.org/2000/svg" xmlns:xlink="http://www.w3.org/1999/xlink" x="0px" y="0px"
	 viewBox="0 0 560 560" style="enable-background:new 0 0 560 560;" xml:space="preserve">
<style type="text/css">
	.st0{fill:#FFFFFF;}
</style>
<path class="st0" d="M88,24c17.7,0,32,14.3,32,32v16l69-17.2c38.1-9.5,78.3-5.1,113.5,12.5c46.3,23.2,100.8,23.2,147.1,0l9.6-4.8
	c20.6-10.4,44.8,4.6,44.8,27.6v279.7c0,13.3-8.3,25.3-20.8,30l-34.7,13c-46.2,17.3-97.6,14.6-141.7-7.4
	c-37.9-19-81.3-23.7-122.5-13.4L120,408v96c0,17.7-14.3,32-32,32s-32-14.3-32-32v-80v-66V88V56C56,38.3,70.3,24,88,24z M120,211.1
	l64-13.9v65.5l-64,13.9V342l48.8-12.2c5.1-1.3,10.1-2.4,15.2-3.3v-63.8l38.9-8.4c8.3-1.8,16.7-2.5,25.1-2.1v-64
	c13.6,0.4,27.2,2.6,40.4,6.4l23.6,6.9v66.7l-41.7-12.3c-7.3-2.1-14.8-3.4-22.3-3.8v71.4c21.8,1.9,43.3,6.7,64,14.4v-69.7l22.7,6.7
	c13.5,4,27.3,6.4,41.3,7.4V218c-7.8-0.8-15.6-2.3-23.2-4.5l-40.8-12v-62c-13-3.8-25.8-8.8-38.2-15c-8.2-4.1-16.9-7-25.8-8.8v72.4
	c-13-0.4-26,0.8-38.7,3.6l-25.3,5.5V122l-64,16V211.1z M376,359.7c16.8,1.5,33.9-0.7,50-6.8l14-5.2v-71.8l-7.9,1.8
	c-18.4,4.3-37.3,5.7-56.1,4.5v77.4V359.7z M440,210.3v-70.9c-20.9,6.1-42.4,9.1-64,9.1V218c13.9,1.4,28,0.5,41.7-2.6l22.3-5.2V210.3
	z"/>
</svg>
