<?xml version="1.0" encoding="utf-8"?>
<!-- Generator: Adobe Illustrator 28.0.0, SVG Export Plug-In . SVG Version: 6.00 Build 0)  -->
<svg version="1.1" id="Layer_1" xmlns="http://www.w3.org/2000/svg" xmlns:xlink="http://www.w3.org/1999/xlink" x="0px" y="0px"
	 viewBox="0 0 500 500" style="enable-background:new 0 0 500 500;" xml:space="preserve">
<style type="text/css">
	.st0{fill:#FFFFFF;}
</style>
<path class="st0" d="M74.4,4.1C35.6,4.1,4.1,35.6,4.1,74.4v351.3c0,38.8,31.5,70.3,70.3,70.3h351.3c38.8,0,70.3-31.5,70.3-70.3
	V159.2c0-18.7-7.4-36.6-20.5-49.7l-84.9-84.9c-13.2-13.2-31.1-20.5-49.7-20.5H74.4z M74.4,109.5c0-19.4,15.7-35.1,35.1-35.1h210.8
	c19.4,0,35.1,15.7,35.1,35.1v70.3c0,19.4-15.7,35.1-35.1,35.1H109.5c-19.4,0-35.1-15.7-35.1-35.1V109.5z M250,285.1
	c38.8,0,70.3,31.5,70.3,70.3s-31.5,70.3-70.3,70.3s-70.3-31.5-70.3-70.3S211.2,285.1,250,285.1z"/>
</svg>
