<?xml version="1.0" encoding="utf-8"?>
<!-- Generator: Adobe Illustrator 28.0.0, SVG Export Plug-In . SVG Version: 6.00 Build 0)  -->
<svg version="1.1" id="Layer_1" xmlns="http://www.w3.org/2000/svg" xmlns:xlink="http://www.w3.org/1999/xlink" x="0px" y="0px"
	 viewBox="0 0 500 500" style="enable-background:new 0 0 500 500;" xml:space="preserve">
<style type="text/css">
	.st0{fill:#FFFFFF;}
</style>
<path class="st0" d="M250,78.1c-6.2,0-12.4,1.1-18.2,3.1L16.6,159c-7.3,2.7-12.1,9.6-12.1,17.3s4.8,14.7,12.1,17.3l44.4,16
	c-12.6,19.8-19.7,43.2-19.7,67.8v21.6c0,21.8-8.3,44.3-17.1,62c-5,10-10.7,19.8-17.3,28.9c-2.5,3.3-3.1,7.6-1.8,11.5
	c1.4,3.9,4.6,6.8,8.6,7.8l49.1,12.3c3.2,0.8,6.7,0.2,9.5-1.5c2.8-1.8,4.8-4.7,5.4-8c6.6-32.8,3.3-62.3-1.6-83.4
	c-2.5-10.9-5.8-22-10.4-32.2v-18.9c0-23.2,7.8-45,21.4-62.5c9.9-11.9,22.7-21.5,37.8-27.4l120.5-47.3c6.3-2.5,13.4,0.6,15.9,6.9
	c2.5,6.3-0.6,13.4-6.9,15.9L134,210.4c-9.5,3.8-17.9,9.5-24.7,16.6l122.5,44.2c5.8,2.1,12,3.1,18.2,3.1s12.4-1.1,18.2-3.1
	l215.3-77.5c7.3-2.6,12.1-9.6,12.1-17.3s-4.8-14.7-12.1-17.3L268.2,81.2C262.4,79.2,256.2,78.1,250,78.1z M102.7,366.6
	c0,27.1,66,55.2,147.3,55.2s147.3-28.2,147.3-55.2L385.6,255l-109.1,39.4c-8.5,3.1-17.5,4.6-26.5,4.6s-18-1.5-26.5-4.6L114.4,255
	L102.7,366.6z"/>
</svg>
