<?xml version="1.0" encoding="utf-8"?>
<!-- Generator: Adobe Illustrator 26.5.0, SVG Export Plug-In . SVG Version: 6.00 Build 0)  -->
<svg version="1.1" id="Layer_1" xmlns="http://www.w3.org/2000/svg" xmlns:xlink="http://www.w3.org/1999/xlink" x="0px" y="0px"
	 viewBox="0 0 512 512" style="enable-background:new 0 0 512 512;" xml:space="preserve">
<style type="text/css">
	.st0{fill:#FFFFFF;}
</style>
<path class="st0" d="M144,64c-26.5,0-48,21.5-48,48v288c0,26.5,21.5,48,48,48h32c26.5,0,48-21.5,48-48V112c0-26.5-21.5-48-48-48H144
	z M336,64c-26.5,0-48,21.5-48,48v288c0,26.5,21.5,48,48,48h32c26.5,0,48-21.5,48-48V112c0-26.5-21.5-48-48-48H336z"/>
</svg>
