<?xml version="1.0" encoding="utf-8"?>
<!-- Generator: Adobe Illustrator 28.1.0, SVG Export Plug-In . SVG Version: 6.00 Build 0)  -->
<svg version="1.1" id="Layer_1" xmlns="http://www.w3.org/2000/svg" xmlns:xlink="http://www.w3.org/1999/xlink" x="0px" y="0px"
	 viewBox="0 0 448 448" style="enable-background:new 0 0 448 448;" xml:space="preserve">
<style type="text/css">
	.st0{fill:#FFFFFF;}
</style>
<path class="st0" d="M414.9,16.7c-19.2-19.2-50.1-19.2-69.3,0l-26.3,26.2l85.7,85.7l26.3-26.3c19.2-19.2,19.2-50.1,0-69.3
	L414.9,16.7z M153.2,209.2c-5.3,5.3-9.4,11.9-11.8,19.2L115.5,306c-2.5,7.5-0.5,15.8,5.1,21.5s13.9,7.6,21.5,5.1l77.7-25.9
	c7.2-2.4,13.7-6.5,19.2-11.8l146.4-146.5l-85.7-85.7L153.2,209.2z M86.3,53.7c-46.4,0-84,37.6-84,84v224c0,46.4,37.6,84,84,84h224
	c46.4,0,84-37.6,84-84v-84c0-15.5-12.5-28-28-28c-15.5,0-28,12.5-28,28v84c0,15.5-12.5,28-28,28h-224c-15.5,0-28-12.5-28-28v-224
	c0-15.5,12.5-28,28-28h84c15.5,0,28-12.5,28-28s-12.5-28-28-28H86.3z"/>
</svg>
