<?xml version="1.0" encoding="utf-8"?>
<!-- Generator: Adobe Illustrator 26.5.0, SVG Export Plug-In . SVG Version: 6.00 Build 0)  -->
<svg version="1.1" id="Layer_1" xmlns="http://www.w3.org/2000/svg" xmlns:xlink="http://www.w3.org/1999/xlink" x="0px" y="0px"
	 viewBox="0 0 640 512" style="enable-background:new 0 0 640 512;" xml:space="preserve">
<style type="text/css">
	.st0{fill:#FFFFFF;}
</style>
<path class="st0" d="M353.8,54.1L330.2,6.3c-3.9-8.3-16.1-8.6-20.4,0l-23.6,47.8l-52.3,7.5c-9.3,1.4-13.3,12.9-6.4,19.8l38,37
	l-9,52.1c-1.4,9.3,8.2,16.5,16.8,12.2l46.9-24.8l46.6,24.4c8.6,4.3,18.3-2.9,16.8-12.2l-9-52.1l38-36.6c6.8-6.8,2.9-18.3-6.4-19.8
	l-52.3-7.5L353.8,54.1z M256,256c-17.7,0-32,14.3-32,32v192c0,17.7,14.3,32,32,32h128c17.7,0,32-14.3,32-32V288
	c0-17.7-14.3-32-32-32H256z M32,320c-17.7,0-32,14.3-32,32v128c0,17.7,14.3,32,32,32h128c17.7,0,32-14.3,32-32V352
	c0-17.7-14.3-32-32-32H32z M448,416v64c0,17.7,14.3,32,32,32h128c17.7,0,32-14.3,32-32v-64c0-17.7-14.3-32-32-32H480
	C462.3,384,448,398.3,448,416z"/>
</svg>
