<?xml version="1.0" encoding="utf-8"?>
<!-- Generator: Adobe Illustrator 27.9.0, SVG Export Plug-In . SVG Version: 6.00 Build 0)  -->
<svg version="1.1" id="Layer_1" xmlns="http://www.w3.org/2000/svg" xmlns:xlink="http://www.w3.org/1999/xlink" x="0px" y="0px"
	 viewBox="0 0 528.4 528.8" style="enable-background:new 0 0 528.4 528.8;" xml:space="preserve">
<style type="text/css">
	.st0{fill:#F6EB14;}
</style>
<path class="st0" d="M293.1,26.4c-5.3-11-16.5-18-28.8-18c-12.3,0-23.4,7-28.8,18l-64.3,132.3L27.6,179.9c-12,1.8-22,10.2-25.7,21.7
	s-0.7,24.2,7.9,32.7L114,337.4L89.4,483.1c-2,12,3,24.2,12.9,31.3c9.9,7.1,23,8,33.8,2.3l128.3-68.5l128.3,68.5
	c10.8,5.7,23.9,4.9,33.8-2.3s14.9-19.3,12.9-31.3l-24.7-145.7l104.2-103.1c8.6-8.5,11.7-21.2,7.9-32.7s-13.7-19.9-25.7-21.7
	l-143.7-21.2L293.1,26.4z"/>
</svg>
