<?xml version="1.0" encoding="utf-8"?>
<!-- Generator: Adobe Illustrator 27.9.0, SVG Export Plug-In . SVG Version: 6.00 Build 0)  -->
<svg version="1.1" id="Layer_1" xmlns="http://www.w3.org/2000/svg" xmlns:xlink="http://www.w3.org/1999/xlink" x="0px" y="0px"
	 viewBox="0 0 528.5 528.5" style="enable-background:new 0 0 528.5 528.5;" xml:space="preserve">
<style type="text/css">
	.st0{opacity:0.5;fill:#FFFFFF;enable-background:new    ;}
</style>
<path class="st0" d="M264.2,8.2c9.2,0,17.6,5.2,21.6,13.5L354.4,163l153.2,22.6c9,1.3,16.5,7.6,19.3,16.3s0.5,18.1-5.9,24.5
	L409.9,336.6l26.2,155.6c1.5,9-2.2,18.1-9.6,23.5c-7.4,5.4-17.3,6-25.3,1.7l-137-73.2l-136.9,73.1c-8.1,4.3-17.9,3.7-25.3-1.7
	c-7.4-5.4-11.2-14.5-9.7-23.5l26.2-155.6L7.4,226.4c-6.5-6.4-8.7-15.9-5.9-24.5s10.3-14.9,19.3-16.3L174,163l68.6-141.3
	C246.7,13.4,255,8.2,264.2,8.2z M264.2,87.2l-52.5,108.2c-3.5,7.1-10.2,12.1-18.1,13.3L75.3,226.1l85.9,85.1
	c5.5,5.5,8.1,13.3,6.8,21l-20.3,119.7l105.2-56.2c7.1-3.8,15.6-3.8,22.6,0l105.2,56.2l-20.2-119.6c-1.3-7.7,1.2-15.5,6.8-21
	l85.9-85.1l-118.3-17.5c-7.8-1.2-14.6-6.1-18.1-13.3L264.2,87.2z"/>
</svg>
