<?xml version="1.0" encoding="utf-8"?>
<!-- Generator: Adobe Illustrator 28.0.0, SVG Export Plug-In . SVG Version: 6.00 Build 0)  -->
<svg version="1.1" id="Layer_1" xmlns="http://www.w3.org/2000/svg" xmlns:xlink="http://www.w3.org/1999/xlink" x="0px" y="0px"
	 viewBox="0 0 512 512" style="enable-background:new 0 0 512 512;" xml:space="preserve">
<style type="text/css">
	.st0{fill:#FFFFFF;}
</style>
<path class="st0" d="M64,128v320c0,35.3,28.7,64,64,64h256c35.3,0,64-28.7,64-64V128H64z M176,432c0,8.8-7.2,16-16,16s-16-7.2-16-16
	V208c0-8.8,7.2-16,16-16s16,7.2,16,16V432z M272,432c0,8.8-7.2,16-16,16s-16-7.2-16-16V208c0-8.8,7.2-16,16-16s16,7.2,16,16V432z
	 M368,432c0,8.8-7.2,16-16,16s-16-7.2-16-16V208c0-8.8,7.2-16,16-16s16,7.2,16,16V432z"/>
</svg>
