<?xml version="1.0" encoding="utf-8"?>
<!-- Generator: Adobe Illustrator 28.0.0, SVG Export Plug-In . SVG Version: 6.00 Build 0)  -->
<svg version="1.1" id="Layer_1" xmlns="http://www.w3.org/2000/svg" xmlns:xlink="http://www.w3.org/1999/xlink" x="0px" y="0px"
	 viewBox="0 0 500 500" style="enable-background:new 0 0 500 500;" xml:space="preserve">
<style type="text/css">
	.st0{fill:#FFFFFF;}
</style>
<path class="st0" d="M77.4,52.8c-40.8,0-74,33.1-74,74v246.5c0,40.8,33.1,74,74,74h345.2c40.8,0,74-33.1,74-74V126.7
	c0-40.8-33.1-74-74-74H77.4z M52.8,126.7c0-13.6,11-24.7,24.7-24.7h345.2c13.6,0,24.7,11,24.7,24.7v246.5c0,13.6-11,24.7-24.7,24.7
	H77.4c-13.6,0-24.7-11-24.7-24.7V126.7z M175.9,188.4c0-20.4-16.6-37-37-37s-37,16.6-37,37s16.6,37,37,37S175.9,208.8,175.9,188.4z
	 M77.4,291.1c0,11.3,9.2,20.6,20.6,20.6h43.2c6.2-26.3,25.3-47.5,50.2-56.7c-5.8-3.2-12.5-4.9-19.5-4.9h-53.5
	C95.8,250,77.4,268.4,77.4,291.1z M358.8,311.6H402c11.3,0,20.6-9.2,20.6-20.6c0-22.7-18.4-41.1-41.1-41.1H328
	c-7.1,0-13.7,1.8-19.5,4.9C333.5,264.1,352.6,285.4,358.8,311.6z M290.1,275.4c-3-0.5-6.1-0.8-9.2-0.8h-61.6c-3.2,0-6.2,0.2-9.2,0.8
	c-20,3.4-36.4,17.5-43.1,36.2c-2.1,5.8-3.2,12-3.2,18.5c0,10.2,8.2,18.5,18.5,18.5h135.6c10.2,0,18.5-8.2,18.5-18.5
	c0-6.5-1.1-12.7-3.2-18.5C326.5,292.9,310.1,278.8,290.1,275.4z M397.9,188.4c0-20.4-16.6-37-37-37c-20.4,0-37,16.6-37,37
	s16.6,37,37,37C381.4,225.3,397.9,208.8,397.9,188.4z M250,250c27.2,0,49.3-22.1,49.3-49.3s-22.1-49.3-49.3-49.3
	s-49.3,22.1-49.3,49.3S222.8,250,250,250z"/>
</svg>
